<svg id="Layer_1" data-name="Layer 1" xmlns="http://www.w3.org/2000/svg" viewBox="0 0 395.61 332.46"><title>signature</title><path d="M318.73,105.51,299,145.22l11,1.44a173,173,0,0,0-22.77-41c-3.54-4.69-10.78-3.25-11.18,3-1.21,19.24-4.53,38.21-7.92,57.16h11.57A168.63,168.63,0,0,0,253.1,115.1c-3.06-4-12.08-3.68-11.18,3,1.31,9.72,2.19,19.52,1.23,29.33s-3.52,19.23-5.89,28.67c-4.68,18.68-9,37.51-14.35,56-5.22,18-12.75,35.14-20,52.4l-11.39,27.12c-3.26,7.75-5.81,17-11.34,23.49l10,2.64a229.81,229.81,0,0,1,10.71-123.51c2.71-7.25-8.89-10.37-11.57-3.19A241.77,241.77,0,0,0,178.64,341c.82,4.29,7.2,6,10,2.65,5.82-6.81,8.73-15.2,12.15-23.36l11.39-27.12c7.74-18.44,16-36.75,21.73-56,5.75-19.39,10.21-39.2,15.13-58.82,2.4-9.58,4.76-19.16,5.88-29,1.19-10.46.37-20.85-1-31.24l-11.18,3a159.41,159.41,0,0,1,25.35,47.9c1.68,5.18,10.46,6.22,11.57,0,3.57-20,7.07-40,8.35-60.35l-11.18,3a162.27,162.27,0,0,1,21.56,38.12c1.71,4.33,8.45,6.51,11,1.43l19.73-39.71c3.42-6.89-6.92-13-10.36-6.06Z" transform="translate(-15.09 -12.91)"/><path d="M200.93,214.27c9.6-29.48,20.78-58.63,37.44-84.92,17.2-27.14,40.49-50.19,64.85-70.92,14.17-12,29-23.29,44.1-34.12,6.18-4.42.47-14.68-6.06-10.36-22,14.55-41.53,32.18-60.82,50-20.59,19.07-40.29,38.89-59.67,59.18a730.27,730.27,0,0,1-60.21,56.48q-33.39,27.9-66.94,55.59-38.13,31.47-76.46,62.69c-6,4.92,2.5,13.14,8.48,8.49,20.53-16,44.49-26.89,68.59-36.27,24.46-9.51,49.21-18.2,73.54-28.07,50.15-20.35,99.52-42.85,151-59.6,28.58-9.3,57.76-16.69,87.54-20.91,7.61-1.08,4.37-12.64-3.19-11.57-54.42,7.7-106.39,26.16-157.11,46.73-25.28,10.26-50.35,21.05-75.59,31.38s-50.79,19.47-76.19,29.22C67,267.82,40.37,279.88,17.16,297.93l8.48,8.49q67.08-54.65,133.53-110c21.22-17.69,41.87-35.49,61.1-55.36,19.46-20.12,38.56-40.55,59-59.64,21.66-20.17,43.25-40.67,68-57.07L341.26,14C313.71,33.68,287,54.8,263.4,79.21a277.4,277.4,0,0,0-54.48,80,520.71,520.71,0,0,0-19.56,51.87c-2.4,7.36,9.19,10.51,11.57,3.19Z" transform="translate(-15.09 -12.91)"/></svg>